<svg id="Layer_1" data-name="Layer 1" xmlns="http://www.w3.org/2000/svg" viewBox="0 0 25.75 22.46"><defs><style>.cls-1,.cls-3{fill:none;}.cls-1{stroke:#000;}.cls-1,.cls-2,.cls-3,.cls-4{stroke-miterlimit:10;}.cls-1,.cls-2{stroke-width:0.94px;}.cls-2{fill:#bf5118;}.cls-2,.cls-3,.cls-4{stroke:#bf5118;}.cls-3,.cls-4{stroke-linecap:round;stroke-width:1.88px;}.cls-4{fill:#c60;}</style></defs><line class="cls-1" x1="12.88" y1="16.66" x2="12.88" y2="16.66"/><path class="cls-2" d="M12.88,1.82a.51.51,0,0,1,.44.24L24.19,19.92a.42.42,0,0,1,0,.48.5.5,0,0,1-.43.24H2a.49.49,0,0,1-.44-.24.42.42,0,0,1,0-.48L12.44,2.06a.49.49,0,0,1,.44-.24m0-.93a1.53,1.53,0,0,0-1.27.7L.74,19.45a1.37,1.37,0,0,0,.52,1.92,1.48,1.48,0,0,0,.74.19H23.75a1.43,1.43,0,0,0,1.46-1.4,1.36,1.36,0,0,0-.2-.71L14.14,1.59A1.53,1.53,0,0,0,12.88.89Z"/><line class="cls-3" x1="12.88" y1="6.86" x2="12.88" y2="13.76"/><ellipse class="cls-4" cx="12.88" cy="17.75" rx="0.33" ry="0.31"/></svg>