<svg id="Layer_1" data-name="Layer 1" xmlns="http://www.w3.org/2000/svg" viewBox="0 0 25.75 22.46"><defs><style>.cls-1{fill:#bf5118;}.cls-1,.cls-2,.cls-3{stroke:#bf5118;stroke-miterlimit:10;}.cls-2{fill:none;}.cls-2,.cls-3{stroke-linecap:round;stroke-width:2px;}.cls-3{fill:#c60;}</style></defs><path class="cls-1" d="M12.88,1a.52.52,0,0,1,.46.27l11.34,19.4a.49.49,0,0,1,0,.52.5.5,0,0,1-.45.27H1.53a.52.52,0,0,1-.46-.27.49.49,0,0,1,0-.52L12.42,1.27A.52.52,0,0,1,12.88,1m0-1a1.54,1.54,0,0,0-1.32.76L.21,20.16a1.53,1.53,0,0,0,1.32,2.3H24.22a1.53,1.53,0,0,0,1.53-1.53,1.49,1.49,0,0,0-.21-.77L14.19.76A1.53,1.53,0,0,0,12.88,0Z"/><line class="cls-2" x1="12.88" y1="6.48" x2="12.88" y2="13.98"/><circle class="cls-3" cx="12.88" cy="18.32" r="0.34"/></svg>