<svg id="Layer_1" data-name="Layer 1" xmlns="http://www.w3.org/2000/svg" viewBox="0 0 29.46 27"><defs><style>.cls-1{fill:#3192ac;}.cls-2,.cls-3,.cls-4,.cls-5,.cls-7{fill:none;stroke-miterlimit:10;}.cls-2,.cls-3,.cls-4,.cls-5,.cls-6,.cls-7{stroke:#3192ac;}.cls-2,.cls-3,.cls-4,.cls-7{stroke-linecap:round;}.cls-2{stroke-width:2.06px;}.cls-3{stroke-width:1.96px;}.cls-4{stroke-width:1.87px;}.cls-6{fill:#d0f0f9;stroke-miterlimit:10;}.cls-7{stroke-width:1.82px;}</style></defs><path class="cls-1" d="M21.84,2A1.16,1.16,0,0,1,23,3.16h0V23.84A1.16,1.16,0,0,1,21.84,25H3.16A1.16,1.16,0,0,1,2,23.84H2V3.16A1.16,1.16,0,0,1,3.16,2H21.84m0-2H3.16A3.18,3.18,0,0,0,0,3.16V23.84A3.18,3.18,0,0,0,3.16,27H21.84A3.18,3.18,0,0,0,25,23.84V3.16A3.18,3.18,0,0,0,21.84,0Z"/><line class="cls-2" x1="7" y1="8" x2="18.67" y2="8"/><line class="cls-3" x1="7" y1="12" x2="17.55" y2="12"/><line class="cls-4" x1="7" y1="16" x2="16.59" y2="16"/><polygon class="cls-5" points="18.7 18 21.31 19.42 18.79 20.97 18.7 18"/><rect class="cls-6" x="15.94" y="9.66" width="15.74" height="4" rx="0.99" transform="translate(2.24 27.07) rotate(-61.63)"/><line class="cls-7" x1="7" y1="20" x2="16.1" y2="20"/></svg>